<svg width="24" height="24" viewBox="0 0 24 24" fill="none" xmlns="http://www.w3.org/2000/svg">
<path fill-rule="evenodd" clip-rule="evenodd" d="M3.75 12C3.75 7.44365 7.44365 3.75 12 3.75C16.5563 3.75 20.25 7.44365 20.25 12C20.25 16.5563 16.5563 20.25 12 20.25C7.44365 20.25 3.75 16.5563 3.75 12ZM12 2.25C6.61522 2.25 2.25 6.61522 2.25 12C2.25 17.3848 6.61522 21.75 12 21.75C17.3848 21.75 21.75 17.3848 21.75 12C21.75 6.61522 17.3848 2.25 12 2.25ZM14.2981 15.3588C14.591 15.6517 15.0659 15.6517 15.3588 15.3588C15.6517 15.0659 15.6516 14.591 15.3588 14.2981L13.0607 12L15.3588 9.7019C15.6516 9.40901 15.6517 8.93414 15.3588 8.64124C15.0659 8.34835 14.591 8.34835 14.2981 8.64124L12 10.9393L9.7019 8.64124C9.40901 8.34835 8.93414 8.34835 8.64124 8.64124C8.34835 8.93414 8.34835 9.40901 8.64124 9.7019L10.9393 12L8.64124 14.2981C8.34835 14.591 8.34835 15.0659 8.64124 15.3588C8.93414 15.6517 9.40901 15.6517 9.7019 15.3588L12 13.0607L14.2981 15.3588Z" fill="#4D84E7"/>
</svg>
